<svg fill="none" height="640" viewBox="0 0 1280 640" width="1280"
    xmlns="http://www.w3.org/2000/svg">
    <rect fill="#E5E5E5" height="640" width="1280" />
    <rect fill="#1F1D2B" height="1044" transform="translate(-149 -202)" width="1577" />
    <path
        d="M752.501 193H657.626L698.751 151.875L690.001 143L640.001 193L590.001 143L581.126 151.875L622.376 193H527.501C513.751 193 502.501 204.125 502.501 218V368C502.501 381.75 513.751 393 527.501 393H752.501C766.251 393 777.501 381.75 777.501 368V218C777.501 204.125 766.251 193 752.501 193ZM752.501 368H527.501V218H752.501V368Z"
        fill="#12CDD9" />
    <path clip-rule="evenodd"
        d="M596.272 244.136C594.063 244.136 592.272 245.927 592.272 248.136V335.591C592.272 337.8 594.063 339.591 596.272 339.591H683.727C685.936 339.591 687.727 337.8 687.727 335.591V248.136C687.727 245.927 685.936 244.136 683.727 244.136H596.272ZM616.626 305.275C619.02 306.556 621.693 307.196 624.644 307.196C627.038 307.196 629.224 306.779 631.201 305.943C633.205 305.108 634.89 303.897 636.254 302.31L632.746 298.969C630.63 301.28 628.027 302.435 624.936 302.435C622.932 302.435 621.136 302.004 619.549 301.141C617.962 300.25 616.723 299.025 615.832 297.466C614.942 295.907 614.496 294.139 614.496 292.162C614.496 290.185 614.942 288.417 615.832 286.858C616.723 285.299 617.962 284.088 619.549 283.225C621.136 282.334 622.932 281.889 624.936 281.889C628.027 281.889 630.63 283.03 632.746 285.313L636.254 282.014C634.89 280.427 633.219 279.216 631.242 278.381C629.266 277.546 627.08 277.128 624.686 277.128C621.735 277.128 619.062 277.782 616.668 279.091C614.301 280.371 612.436 282.153 611.072 284.436C609.707 286.719 609.025 289.294 609.025 292.162C609.025 295.03 609.694 297.605 611.03 299.888C612.394 302.171 614.259 303.967 616.626 305.275ZM663.321 306.779H667.789V277.546H662.402V297.341L646.282 277.546H641.814V306.779H647.201V286.984L663.321 306.779Z"
        fill="#12CDD9" fill-rule="evenodd" />
    <path
        d="M493.596 504.72C489.756 504.72 486.18 504.096 482.868 502.848C479.604 501.552 476.748 499.752 474.3 497.448C471.9 495.096 470.028 492.336 468.684 489.168C467.34 486 466.668 482.544 466.668 478.8C466.668 475.056 467.34 471.6 468.684 468.432C470.028 465.264 471.924 462.528 474.372 460.224C476.82 457.872 479.676 456.072 482.94 454.824C486.204 453.528 489.78 452.88 493.668 452.88C497.796 452.88 501.564 453.6 504.972 455.04C508.38 456.432 511.26 458.52 513.612 461.304L507.564 466.992C505.74 465.024 503.7 463.56 501.444 462.6C499.188 461.592 496.74 461.088 494.1 461.088C491.46 461.088 489.036 461.52 486.828 462.384C484.668 463.248 482.772 464.472 481.14 466.056C479.556 467.64 478.308 469.512 477.396 471.672C476.532 473.832 476.1 476.208 476.1 478.8C476.1 481.392 476.532 483.768 477.396 485.928C478.308 488.088 479.556 489.96 481.14 491.544C482.772 493.128 484.668 494.352 486.828 495.216C489.036 496.08 491.46 496.512 494.1 496.512C496.74 496.512 499.188 496.032 501.444 495.072C503.7 494.064 505.74 492.552 507.564 490.536L513.612 496.296C511.26 499.032 508.38 501.12 504.972 502.56C501.564 504 497.772 504.72 493.596 504.72ZM522.7 504V453.6H532.06V504H522.7ZM545.813 504V453.6H553.517L585.125 492.408H581.309V453.6H590.597V504H582.893L551.285 465.192H555.101V504H545.813ZM612.862 474.552H637.918V482.256H612.862V474.552ZM613.582 496.152H642.022V504H604.222V453.6H641.014V461.448H613.582V496.152ZM652.576 504V453.6H660.28L682.312 490.392H678.28L699.952 453.6H707.656L707.728 504H698.872L698.8 467.496H700.672L682.24 498.24H678.064L659.344 467.496H661.504V504H652.576ZM714.334 504L737.014 453.6H746.23L768.982 504H759.19L739.678 458.568H743.422L723.982 504H714.334ZM724.774 492.336L727.294 484.992H754.51L757.03 492.336H724.774ZM766.86 504L788.1 474.768V481.824L767.868 453.6H778.452L793.5 474.48L789.18 474.552L804.084 453.6H814.236L794.148 481.32V474.552L815.532 504H804.732L788.892 481.824H793.14L777.516 504H766.86Z"
        fill="#12CDD9" />
</svg>
